<svg xmlns="http://www.w3.org/2000/svg" version="1.1" xmlns:xlink="http://www.w3.org/1999/xlink"
     xmlns:svgjs="http://svgjs.dev/svgjs" viewBox="0 0 800 800" opacity="0.08">
    <defs>
        <symbol id="bbburst-shape-7" viewBox="0 0 139 124">
            <path fill-rule="evenodd" clip-rule="evenodd"
                  d="M70.1641 15.0917C54.6093.764854 37.8293-2.10782 24.4032 2.82615 10.3804 7.97941.763366 21.4591 1.00047 37.0608c.1068 7.0273 2.86132 13.7317 7.0039 20.2001C12.1442 63.7249 17.853 70.2322 24.25 76.9024c3.8209 3.9842 7.8871 8.0312 12.0767 12.201h.0001c10.0335 9.9862 20.7748 20.6766 30.5497 32.8956 1.38 1.725 3.8972 2.005 5.6223.624.6706-.536 1.1228-1.244 1.3439-2.011 9.5768-11.748 20.0328-22.0735 29.8163-31.7351 4.19-4.1373 8.256-8.1528 12.078-12.1062 6.396-6.6176 12.106-13.0752 16.247-19.4911 4.144-6.4196 6.905-13.0811 7.012-20.0691.237-15.5124-9.399-28.8902-23.411-33.99923-13.32-4.85681-29.9542-2.08621-45.4209 11.88043Zm-3.7351 7.4919C52.1278 8.44857 37.6826 6.46918 27.1626 10.3352 16.2859 14.3323 8.8148 24.7824 8.99955 36.9392c.07575 4.9844 2.03755 10.2234 5.74165 16.0072 3.707 5.7881 8.9752 11.8418 15.2827 18.4187 3.5798 3.7328 7.4978 7.6329 11.6 11.7163 9.0476 9.0063 18.9911 18.9046 28.1786 29.8666 9.2999-11.068 19.4036-21.0473 28.5839-30.1144l.0007-.0006c4.1019-4.0508 8.0189-7.9196 11.5979-11.6222 6.307-6.5252 11.573-12.5298 15.278-18.2697 3.703-5.7362 5.658-10.924 5.734-15.8531.184-12.0276-7.267-22.3914-18.153-26.3608-10.71-3.90518-25.4722-1.80041-40.0023 12.867-1.5547 1.5694-4.0874 1.5813-5.6568.0265-.3146-.3116-.5666-.6625-.7559-1.0371Z"></path>
        </symbol>
        <symbol id="bbburst-shape-8" viewBox="0 0 87 168">
            <path d="m12 12 31.2546 18.0749c16.4102 9.4902 20.014 31.6325 7.4603 45.8369L36.3296 92.1884c-12.5684 14.2206-8.9394 36.3916 7.5068 45.8636L75 156"
                  stroke-width="14" stroke-linecap="round" stroke-linejoin="round"></path>
        </symbol>
        <symbol id="bbburst-shape-10" viewBox="0 0 145 145">
            <circle cx="72.5" cy="72.5" r="61.5" fill="none" stroke-width="22"></circle>
        </symbol>
        <symbol id="bbburst-shape-11" viewBox="0 0 194 167">
            <path d="M10.398 161 97 11l86.603 150H10.397Z" stroke-width="11"></path>
        </symbol>
        <symbol id="bbburst-shape-12" viewBox="0 0 170 151">
            <path d="M69.3728 54.2122 85 10.0031l15.627 44.2091c1.413 3.9958 5.19 6.6672 9.428 6.6673h49.312l-39.149 26.1447c-3.803 2.5401-5.399 7.3367-3.875 11.6488l15.179 42.94-40.9683-27.36c-3.3621-2.245-7.7453-2.245-11.1074 0l-40.9682 27.36 15.1785-42.94c1.5243-4.3121-.0712-9.1087-3.8746-11.6488L10.6333 60.8795h49.3112c4.2381-.0001 8.0159-2.6715 9.4283-6.6673Z"
                  stroke-width="12"></path>
        </symbol>
    </defs>
    <use xlink:href="#bbburst-shape-11" width="8.093115233611288" opacity="0.8748425389471464"
         transform="matrix(0.9428299959877694,0.33327405939512117,-0.33327405939512117,0.9428299959877694,474.4584523605292,33.22175873268992)"
         fill="none" stroke="#00a19d"></use>
    <use xlink:href="#bbburst-shape-12" width="27.862476759431015" opacity="0.01908566488250152"
         transform="matrix(0.9992101378641117,0.039737896139364084,-0.039737896139364084,0.9992101378641117,764.5010623934978,-252.1219726519004)"
         fill="none" stroke="#ffa6d5"></use>
    <use xlink:href="#bbburst-shape-10" width="14.098077110525573" opacity="0.7402113743660113"
         transform="matrix(0.9995081876517774,-0.03135893520289597,0.03135893520289597,0.9995081876517774,273.521967739371,47.76246511406845)"
         fill="none" stroke="#ffa6d5"></use>
    <use xlink:href="#bbburst-shape-12" width="12.979688851962628" opacity="0.7821931199733907"
         transform="matrix(0.9954752455066725,-0.09502123753893195,0.09502123753893195,0.9954752455066725,308.7123496598497,-83.70601826152318)"
         fill="none" stroke="#ff5c58"></use>
    <use xlink:href="#bbburst-shape-8" width="20.311151963927664" opacity="0.5238320814265311"
         transform="matrix(0.8535842685371965,-0.5209547931498656,0.5209547931498656,0.8535842685371965,178.8898322796184,278.09400523870636)"
         fill="none" stroke="#c1ffd7"></use>
    <use xlink:href="#bbburst-shape-11" width="30.87606647093162" opacity="0.1822108683721907"
         transform="matrix(0.9104995601592961,0.41351003730227437,-0.41351003730227437,0.9104995601592961,541.4414543081876,-338.8131760424162)"
         fill="none" stroke="#c1ffd7"></use>
    <use xlink:href="#bbburst-shape-11" width="38.25388821683266" opacity="0.32572297539814776"
         transform="matrix(0.8812270785024774,-0.4726931733312726,0.4726931733312726,0.8812270785024774,37.86811119174229,-204.15506871525264)"
         fill="none" stroke="#ffbd9b"></use>
    <use xlink:href="#bbburst-shape-11" width="36.00463172294353" opacity="0.37329683763220767"
         transform="matrix(0.8523565243802461,0.5229611413350201,-0.5229611413350201,0.8523565243802461,863.6293727598463,132.18031051394195)"
         fill="none" stroke="#00a19d"></use>
    <use xlink:href="#bbburst-shape-8" width="34.30981282753049" opacity="0.17565947974031626"
         transform="matrix(0.9178587604973533,-0.3969071626693857,0.3969071626693857,0.9178587604973533,-144.7904500917768,61.97421522243792)"
         fill="none" stroke="#ffbd9b"></use>
    <use xlink:href="#bbburst-shape-12" width="15.068794685925194" opacity="0.8831956096676961"
         transform="matrix(0.9372718001568643,-0.3485994443924301,0.3485994443924301,0.9372718001568643,260.69520836981724,-24.37346414384109)"
         fill="none" stroke="#ffbd9b"></use>
    <use xlink:href="#bbburst-shape-12" width="16.341559723037037" opacity="0.7273003877718156"
         transform="matrix(0.7138817453745848,0.7002662733710203,-0.7002662733710203,0.7138817453745848,639.6539310416184,226.42856659013688)"
         fill="none" stroke="#ffbd9b"></use>
    <use xlink:href="#bbburst-shape-11" width="22.31742340571495" opacity="0.579303051784648"
         transform="matrix(0.9998153871616557,0.019214359078264676,-0.019214359078264676,0.9998153871616557,207.49401384146344,9.735298949234277)"
         fill="none" stroke="#00a19d"></use>
    <use xlink:href="#bbburst-shape-8" width="33.980999297099494" opacity="0.05106914651365946"
         transform="matrix(0.7752972166139429,-0.6315965689509981,0.6315965689509981,0.7752972166139429,365.0804925678215,-258.6009149625228)"
         fill="none" stroke="#ff5c58"></use>
    <use xlink:href="#bbburst-shape-11" width="16.41716852163254" opacity="0.7981243607758973"
         transform="matrix(0.9820949137918807,0.18838678378304144,-0.18838678378304144,0.9820949137918807,461.53738912957255,-85.25111258153754)"
         fill="none" stroke="#00a19d"></use>
    <use xlink:href="#bbburst-shape-8" width="31.104797099859805" opacity="0.431562304546826"
         transform="matrix(0.9872737027781155,0.15903029837986576,-0.15903029837986576,0.9872737027781155,373.9950914587245,-242.16260209674581)"
         fill="none" stroke="#00a19d"></use>
    <use xlink:href="#bbburst-shape-10" width="24.083604354429646" opacity="0.5546914369225686"
         transform="matrix(0.9441999827233801,-0.32937272598861117,0.32937272598861117,0.9441999827233801,338.8998310886594,-156.5486811403064)"
         fill="none" stroke="#00a19d"></use>
    <use xlink:href="#bbburst-shape-12" width="12.085351265059401" opacity="0.9169402587314773"
         transform="matrix(0.977780632537615,-0.20963071014128964,0.20963071014128964,0.977780632537615,302.9608766497155,46.79536076896562)"
         fill="none" stroke="#ff5c58"></use>
    <use xlink:href="#bbburst-shape-7" width="24.84468620034371" opacity="0.4206092209563389"
         transform="matrix(0.9434533296590564,-0.3315053766611332,0.3315053766611332,0.9434533296590564,373.5287863426783,259.2853009405701)"
         fill="#c1ffd7"></use>
    <use xlink:href="#bbburst-shape-8" width="10.541971439476317" opacity="0.7915538635835954"
         transform="matrix(0.887675565475185,-0.4604694240210858,0.4604694240210858,0.887675565475185,166.0269966709401,129.6004784901109)"
         fill="none" stroke="#ffa6d5"></use>
    <use xlink:href="#bbburst-shape-8" width="8.895563419463166" opacity="0.9242501530740902"
         transform="matrix(0.9718429584252627,0.23562950613035089,-0.23562950613035089,0.9718429584252627,461.5292633929537,29.066664122717384)"
         fill="none" stroke="#00a19d"></use>
    <use xlink:href="#bbburst-shape-11" width="22.554325950841093" opacity="0.6316150764298216"
         transform="matrix(0.9985154501860847,-0.05446921827675299,0.05446921827675299,0.9985154501860847,530.2160202114235,29.56079502140409)"
         fill="none" stroke="#ffa6d5"></use>
    <use xlink:href="#bbburst-shape-11" width="24.325043974767727" opacity="0.4927937405480656"
         transform="matrix(0.8969465269022016,-0.442139036817694,0.442139036817694,0.8969465269022016,428.9383392062698,-24.91761458272117)"
         fill="none" stroke="#ffa6d5"></use>
    <use xlink:href="#bbburst-shape-11" width="19.018672753611327" opacity="0.7673947909803086"
         transform="matrix(0.824120092070241,-0.566415107360439,0.566415107360439,0.824120092070241,233.41905326743202,-4.073038369316464)"
         fill="none" stroke="#ffbd9b"></use>
    <use xlink:href="#bbburst-shape-8" width="32.67316485308194" opacity="0.04703486865056161"
         transform="matrix(0.9972639548304643,-0.07392296257524934,0.07392296257524934,0.9972639548304643,20.44233038869823,271.6447020057684)"
         fill="none" stroke="#00a19d"></use>
    <use xlink:href="#bbburst-shape-12" width="25.654083733490594" opacity="0.5213068556456013"
         transform="matrix(0.9997151636385349,0.023866118058401962,-0.023866118058401962,0.9997151636385349,525.6270606734666,172.34850127448516)"
         fill="none" stroke="#00a19d"></use>
    <use xlink:href="#bbburst-shape-10" width="12.513158722113529" opacity="0.7270204067165706"
         transform="matrix(0.9670658741874659,-0.2545262166890325,0.2545262166890325,0.9670658741874659,214.81360545547108,110.21586767428158)"
         fill="none" stroke="#00a19d"></use>
    <use xlink:href="#bbburst-shape-11" width="21.78587556359268" opacity="0.17249257821951702"
         transform="matrix(0.8035709534357701,-0.5952089740539261,0.5952089740539261,0.8035709534357701,108.75760967985278,454.57084560345294)"
         fill="none" stroke="#ff5c58"></use>
    <use xlink:href="#bbburst-shape-11" width="35.18377190994365" opacity="0.027262437102745563"
         transform="matrix(0.8121585741293441,0.5834367578994236,-0.5834367578994236,0.8121585741293441,262.3143877465285,-188.7413333122562)"
         fill="none" stroke="#00a19d"></use>
    <use xlink:href="#bbburst-shape-10" width="9.75689715526007" opacity="0.9463631678377992"
         transform="matrix(0.7800137013690518,-0.6257624354949343,0.6257624354949343,0.7800137013690518,157.97754199703786,111.93889401843018)"
         fill="none" stroke="#ff5c58"></use>
    <use xlink:href="#bbburst-shape-10" width="20.23756383454551" opacity="0.6305309161732455"
         transform="matrix(0.9991510709909499,-0.041196326749331456,0.041196326749331456,0.9991510709909499,360.2235724036802,166.4936734021082)"
         fill="none" stroke="#ffbd9b"></use>
    <use xlink:href="#bbburst-shape-12" width="40.10674553621932" opacity="-0.0885097012646614"
         transform="matrix(0.8396057434938804,-0.5431962771338629,0.5431962771338629,0.8396057434938804,-171.30465662672464,-280.34525939695504)"
         fill="none" stroke="#c1ffd7"></use>
    <use xlink:href="#bbburst-shape-10" width="17.200934444397276" opacity="0.7248495577778818"
         transform="matrix(0.7827735883900935,-0.6223066039492884,0.6223066039492884,0.7827735883900935,188.3449241277338,207.97877242324142)"
         fill="none" stroke="#ffa6d5"></use>
    <use xlink:href="#bbburst-shape-8" width="11.597458264048928" opacity="0.9780745793574428"
         transform="matrix(0.7357242975981836,-0.6772811513128498,0.6772811513128498,0.7357242975981836,115.4276857779405,112.65551525740511)"
         fill="none" stroke="#ffa6d5"></use>
    <use xlink:href="#bbburst-shape-12" width="13.575286254865926" opacity="0.792317907753584"
         transform="matrix(0.8642835827900073,0.5030048593400154,-0.5030048593400154,0.8642835827900073,687.2260127606501,33.74537468321296)"
         fill="none" stroke="#ff5c58"></use>
    <use xlink:href="#bbburst-shape-12" width="25.571010300094528" opacity="0.5227894750440409"
         transform="matrix(0.9989345170403211,0.046150088466009355,-0.046150088466009355,0.9989345170403211,606.9516694958481,74.68413746889559)"
         fill="none" stroke="#c1ffd7"></use>
    <use xlink:href="#bbburst-shape-11" width="30.191631499927677" opacity="0.27815646815512807"
         transform="matrix(0.9888054902124952,-0.14921026280262054,0.14921026280262054,0.9888054902124952,247.19079583003276,321.6364615504256)"
         fill="none" stroke="#ffa6d5"></use>
    <use xlink:href="#bbburst-shape-12" width="11.894495524960456" opacity="0.9499787107239738"
         transform="matrix(0.9992036295559579,0.03990121153799841,-0.03990121153799841,0.9992036295559579,413.905477366231,-22.111775836651134)"
         fill="none" stroke="#ff5c58"></use>
    <use xlink:href="#bbburst-shape-11" width="10.588930714839407" opacity="0.8342545544761993"
         transform="matrix(0.9833636376802589,-0.18164789040406826,0.18164789040406826,0.9833636376802589,372.9836677786797,62.02406060086997)"
         fill="none" stroke="#c1ffd7"></use>
    <use xlink:href="#bbburst-shape-10" width="28.143094102729943" opacity="0.44099401953397876"
         transform="matrix(0.9687893999862311,0.2478852526358078,-0.2478852526358078,0.9687893999862311,237.6414924277746,-33.83078345514417)"
         fill="none" stroke="#ffbd9b"></use>
    <use xlink:href="#bbburst-shape-8" width="15.962358845812403" opacity="0.6863090456247396"
         transform="matrix(0.9668373741490195,-0.2553928189057571,0.2553928189057571,0.9668373741490195,423.19889203120147,-31.7933872381347)"
         fill="none" stroke="#00a19d"></use>
    <use xlink:href="#bbburst-shape-12" width="16.10226031870736" opacity="0.7614617759075167"
         transform="matrix(0.9421044454603167,-0.33531956972999527,0.33531956972999527,0.9421044454603167,352.79642309585523,-25.046787274977873)"
         fill="none" stroke="#ffbd9b"></use>
    <use xlink:href="#bbburst-shape-11" width="41.10100247638609" opacity="-0.09700741266673729"
         transform="matrix(0.9886281129347038,-0.15038103043657652,0.15038103043657652,0.9886281129347038,664.609266354164,-345.8143167478531)"
         fill="none" stroke="#00a19d"></use>
    <use xlink:href="#bbburst-shape-8" width="11.707021245821938" opacity="0.8607448269500689"
         transform="matrix(0.9998237716699536,0.01877300198872176,-0.01877300198872176,0.9998237716699536,464.32156020847555,-0.04005214108127575)"
         fill="none" stroke="#ff5c58"></use>
    <use xlink:href="#bbburst-shape-11" width="28.223722290124027" opacity="0.1912652736716587"
         transform="matrix(0.7672519990041768,0.6413457492056017,-0.6413457492056017,0.7672519990041768,958.9453152917038,-101.90706878278357)"
         fill="none" stroke="#ffa6d5"></use>
    <use xlink:href="#bbburst-shape-8" width="30.622294728571656" opacity="0.12906402648156512"
         transform="matrix(0.9511380077142466,-0.3087660769601702,0.3087660769601702,0.9511380077142466,630.3954338019558,-109.27856592690358)"
         fill="none" stroke="#c1ffd7"></use>
    <use xlink:href="#bbburst-shape-12" width="34.262863241916236" opacity="0.34271183297864716"
         transform="matrix(0.7995430329841409,0.6006088064676717,-0.6006088064676717,0.7995430329841409,897.3326783193279,-49.23794199778672)"
         fill="none" stroke="#c1ffd7"></use>
    <use xlink:href="#bbburst-shape-12" width="16.367889054220644" opacity="0.6416709837854719"
         transform="matrix(0.9969454608127858,0.07810088453264896,-0.07810088453264896,0.9969454608127858,501.53076586455165,141.43242957563865)"
         fill="none" stroke="#c1ffd7"></use>
    <use xlink:href="#bbburst-shape-8" width="9.677428173700722" opacity="0.863520969876945"
         transform="matrix(0.765246941274259,-0.6437368397648148,0.6437368397648148,0.765246941274259,89.22242609734303,133.26097848782422)"
         fill="none" stroke="#ffa6d5"></use>
    <use xlink:href="#bbburst-shape-8" width="12.976109505522325" opacity="0.7811395383218038"
         transform="matrix(0.9387019401878833,-0.34472984710857785,0.34472984710857785,0.9387019401878833,257.52106474702236,125.23158162836444)"
         fill="none" stroke="#ff5c58"></use>
    <use xlink:href="#bbburst-shape-11" width="15.738844075326309" opacity="0.7808517736468369"
         transform="matrix(0.9893665937946616,0.1454432641381132,-0.1454432641381132,0.9893665937946616,356.75278140119605,-27.938296406722145)"
         fill="none" stroke="#ffa6d5"></use>
    <use xlink:href="#bbburst-shape-12" width="28.30031592795282" opacity="0.5347482380623807"
         transform="matrix(0.8470428174889778,-0.5315246610838807,0.5315246610838807,0.8470428174889778,-8.795858308080483,-30.905057613356576)"
         fill="none" stroke="#ffbd9b"></use>
    <use xlink:href="#bbburst-shape-11" width="14.693726873263635" opacity="0.7254103051565816"
         transform="matrix(0.9982253219116531,-0.05955003521725683,0.05955003521725683,0.9982253219116531,404.71868769765786,-117.28186629640902)"
         fill="none" stroke="#ffbd9b"></use>
    <use xlink:href="#bbburst-shape-11" width="10.76503930426847" opacity="0.8557270153051977"
         transform="matrix(0.8156680138954302,0.5785202598940544,-0.5785202598940544,0.8156680138954302,602.6277682741913,10.37106046269065)"
         fill="none" stroke="#c1ffd7"></use>
    <use xlink:href="#bbburst-shape-11" width="33.614553288565865" opacity="0.48037835107282767"
         transform="matrix(0.8135703088107368,0.5814665533129162,-0.5814665533129162,0.8135703088107368,453.17235270262074,-100.2438314743055)"
         fill="none" stroke="#ffa6d5"></use>
    <use xlink:href="#bbburst-shape-8" width="24.453806499969225" opacity="0.4637324718637543"
         transform="matrix(0.9489169832431343,-0.31552584507889236,0.31552584507889236,0.9489169832431343,22.734382243647786,54.254523889384984)"
         fill="none" stroke="#00a19d"></use>
    <use xlink:href="#bbburst-shape-7" width="29.06725290405763" opacity="0.4632369953410803"
         transform="matrix(0.8985060541539164,0.43896112658042913,-0.43896112658042913,0.8985060541539164,758.4037575895279,-107.0455870199117)"
         fill="#ff5c58"></use>
    <use xlink:href="#bbburst-shape-11" width="12.738142363270114" opacity="0.8373736218987629"
         transform="matrix(0.9315877181148213,-0.36351660685258974,0.36351660685258974,0.9315877181148213,311.42318399080807,-8.007784957180263)"
         fill="none" stroke="#ffa6d5"></use>
    <use xlink:href="#bbburst-shape-8" width="14.205452030649969" opacity="0.7956907268250952"
         transform="matrix(0.7394807202075449,0.6731777361450175,-0.6731777361450175,0.7394807202075449,594.4336843556123,159.51565277403813)"
         fill="none" stroke="#00a19d"></use>
    <use xlink:href="#bbburst-shape-11" width="16.52846530882448" opacity="0.6780348909509455"
         transform="matrix(0.9784859439506658,-0.20631349323535414,0.20631349323535414,0.9784859439506658,421.77507972275043,-81.28025275929315)"
         fill="none" stroke="#ff5c58"></use>
    <use xlink:href="#bbburst-shape-10" width="11.36618949237986" opacity="0.8683105742374759"
         transform="matrix(0.981410871339933,0.1919184764836193,-0.1919184764836193,0.981410871339933,440.37583385937415,56.963804273044275)"
         fill="none" stroke="#ffa6d5"></use>
    <use xlink:href="#bbburst-shape-8" width="30.485775509369216" opacity="0.27352885828604256"
         transform="matrix(0.9179180962809258,-0.3967699188698673,0.3967699188698673,0.9179180962809258,291.38096082594666,-281.6893277747928)"
         fill="none" stroke="#00a19d"></use>
    <use xlink:href="#bbburst-shape-7" width="18.031281073074112" opacity="0.6945388821359484"
         transform="matrix(0.7615096855586352,0.6481535302691706,-0.6481535302691706,0.7615096855586352,664.9918318213232,226.38117990329988)"
         fill="#ff5c58"></use>
    <use xlink:href="#bbburst-shape-12" width="29.414363680719656" opacity="0.4555576797928831"
         transform="matrix(0.997288839847404,0.07358647916444307,-0.07358647916444307,0.997288839847404,464.87170136628026,239.77079751403897)"
         fill="none" stroke="#ffa6d5"></use>
    <use xlink:href="#bbburst-shape-10" width="32.86214325319832" opacity="0.3174965577768767"
         transform="matrix(0.8953709479525023,-0.4453210814262417,0.4453210814262417,0.8953709479525023,513.6028701353489,69.64529234143964)"
         fill="none" stroke="#00a19d"></use>
    <use xlink:href="#bbburst-shape-11" width="26.190301732455964" opacity="0.5987837010203572"
         transform="matrix(0.8132572366539004,0.5819043452579314,-0.5819043452579314,0.8132572366539004,800.9652439888548,40.74341329790832)"
         fill="none" stroke="#ffbd9b"></use>
    <use xlink:href="#bbburst-shape-11" width="29.019728703032463" opacity="0.13753834652341868"
         transform="matrix(0.9999110273493163,-0.013339317270192892,0.013339317270192892,0.9999110273493163,16.147155149913058,-134.78884307486567)"
         fill="none" stroke="#ffbd9b"></use>
    <use xlink:href="#bbburst-shape-8" width="45.3216658748187" opacity="-0.0991290130206961"
         transform="matrix(0.9934823283594555,-0.11398624143937351,0.11398624143937351,0.9934823283594555,679.4555996116719,357.0947915098447)"
         fill="none" stroke="#ffa6d5"></use>
    <use xlink:href="#bbburst-shape-12" width="12.96279854865044" opacity="0.7306053750737822"
         transform="matrix(0.8909717885975209,0.4540586657287079,-0.4540586657287079,0.8909717885975209,686.6737031246466,89.80340634089725)"
         fill="none" stroke="#ffa6d5"></use>
    <use xlink:href="#bbburst-shape-12" width="36.20979678188934" opacity="0.26249324915015804"
         transform="matrix(0.9159211101605945,0.4013583435811245,-0.4013583435811245,0.9159211101605945,712.5136624861302,-259.600317419458)"
         fill="none" stroke="#ffa6d5"></use>
    <use xlink:href="#bbburst-shape-12" width="44.22929889951384" opacity="0.20626348307039932"
         transform="matrix(0.7298110435905439,0.6836489162232916,-0.6836489162232916,0.7298110435905439,556.3135975164364,-249.6876466499616)"
         fill="none" stroke="#ffa6d5"></use>
    <use xlink:href="#bbburst-shape-7" width="26.047642002620965" opacity="0.17254517060468144"
         transform="matrix(0.7412819838543576,-0.6711937279302809,0.6711937279302809,0.7412819838543576,493.9819173465576,123.40170344167512)"
         fill="#00a19d"></use>
    <use xlink:href="#bbburst-shape-11" width="17.626466090724662" opacity="0.7604527456402632"
         transform="matrix(0.863954508515737,0.5035698632914121,-0.5035698632914121,0.863954508515737,512.3951872052778,-20.731533131808646)"
         fill="none" stroke="#ffa6d5"></use>
    <use xlink:href="#bbburst-shape-10" width="10.724673811726529" opacity="0.9158768074113799"
         transform="matrix(0.8876607579903478,-0.46049796820833105,0.46049796820833105,0.8876607579903478,190.04014677682204,15.908954374772122)"
         fill="none" stroke="#ffa6d5"></use>
    <use xlink:href="#bbburst-shape-11" width="30.411709568834215" opacity="0.12131804529057844"
         transform="matrix(0.9998822662319421,-0.015344499824875018,0.015344499824875018,0.9998822662319421,231.2676806922604,366.80057190675046)"
         fill="none" stroke="#ff5c58"></use>
    <use xlink:href="#bbburst-shape-12" width="10.923075324204774" opacity="0.8427520543554201"
         transform="matrix(0.9003413986995751,-0.43518428945412624,0.43518428945412624,0.9003413986995751,150.67411688272932,34.3856977176182)"
         fill="none" stroke="#ffa6d5"></use>
    <use xlink:href="#bbburst-shape-12" width="10.825541584470066" opacity="0.9168983308127229"
         transform="matrix(0.9090269006478435,0.41673744000098634,-0.41673744000098634,0.9090269006478435,525.5074108100173,25.03066805414568)"
         fill="none" stroke="#00a19d"></use>
    <use xlink:href="#bbburst-shape-7" width="25.38240703966784" opacity="0.10031361785046022"
         transform="matrix(0.8813291328523505,-0.4725028672777806,0.4725028672777806,0.8813291328523505,562.7684909269492,232.70287089814275)"
         fill="#c1ffd7"></use>
    <use xlink:href="#bbburst-shape-8" width="27.42306467974185" opacity="0.22715715716412466"
         transform="matrix(0.7756902754440198,-0.631113774672666,0.631113774672666,0.7756902754440198,479.0437601844805,35.921174061967406)"
         fill="none" stroke="#ff5c58"></use>
    <use xlink:href="#bbburst-shape-8" width="19.83445142564832" opacity="0.6480857025036173"
         transform="matrix(0.9495680591153768,0.3135610006168758,-0.3135610006168758,0.9495680591153768,365.69768811495055,66.91655303700662)"
         fill="none" stroke="#00a19d"></use>
    <use xlink:href="#bbburst-shape-11" width="34.63576031417574" opacity="0.3529293960659027"
         transform="matrix(0.9769336093439814,0.21354325775856517,-0.21354325775856517,0.9769336093439814,454.5704529710382,-285.7514785830543)"
         fill="none" stroke="#00a19d"></use>
    <use xlink:href="#bbburst-shape-10" width="35.808361131529395" opacity="0.18701380434741266"
         transform="matrix(0.9399756526158523,-0.34124151636253564,0.34124151636253564,0.9399756526158523,599.044605529487,128.4888532095336)"
         fill="none" stroke="#00a19d"></use>
    <use xlink:href="#bbburst-shape-12" width="37.05631623913623" opacity="0.183876326381462"
         transform="matrix(0.991263581052727,0.13189584102057028,-0.13189584102057028,0.991263581052727,84.33656228728589,112.03234462785082)"
         fill="none" stroke="#ffa6d5"></use>
    <use xlink:href="#bbburst-shape-10" width="24.510977567114406" opacity="0.5952435557536773"
         transform="matrix(0.9162549249714156,0.40059569701336745,-0.40059569701336745,0.9162549249714156,511.39429731093014,-149.6255289709718)"
         fill="none" stroke="#ff5c58"></use>
    <use xlink:href="#bbburst-shape-10" width="20.65932680423702" opacity="0.5891750624532388"
         transform="matrix(0.9207811196598873,0.3900796453006544,-0.3900796453006544,0.9207811196598873,709.1996011252597,-60.164851528200984)"
         fill="none" stroke="#ffa6d5"></use>
    <use xlink:href="#bbburst-shape-11" width="31.7327950852954" opacity="0.2521826291565936"
         transform="matrix(0.9309451209521074,0.36515911843395904,-0.36515911843395904,0.9309451209521074,369.1301591673931,316.23393256739377)"
         fill="none" stroke="#c1ffd7"></use>
    <use xlink:href="#bbburst-shape-11" width="14.532242854618008" opacity="0.8163123523584002"
         transform="matrix(0.9991339783740083,0.04160881227007825,-0.04160881227007825,0.9991339783740083,482.7514017175886,37.94777182612006)"
         fill="none" stroke="#ff5c58"></use>
    <use xlink:href="#bbburst-shape-11" width="19.69759032070907" opacity="0.5274030845050739"
         transform="matrix(0.9838407136173303,0.17904594446382266,-0.17904594446382266,0.9838407136173303,401.75218804907774,208.4144297308606)"
         fill="none" stroke="#ffbd9b"></use>
    <use xlink:href="#bbburst-shape-10" width="30.910202156772776" opacity="0.14291158139861349"
         transform="matrix(0.7838138368559343,-0.6209958688696559,0.6209958688696559,0.7838138368559343,261.42119123514,-269.8362268054876)"
         fill="none" stroke="#ffbd9b"></use>
    <use xlink:href="#bbburst-shape-12" width="9.555289876707729" opacity="0.8890906287126749"
         transform="matrix(0.8777982262484094,0.47903055643157694,-0.47903055643157694,0.8777982262484094,611.5710188725416,90.25731808393749)"
         fill="none" stroke="#ffbd9b"></use>
    <use xlink:href="#bbburst-shape-7" width="22.435431030041464" opacity="0.6405820157092953"
         transform="matrix(0.7340013994276835,-0.6791479556313207,0.6791479556313207,0.7340013994276835,263.48311271162476,188.79415690186124)"
         fill="#00a19d"></use>
    <use xlink:href="#bbburst-shape-10" width="17.1307353592517" opacity="0.8532541953451982"
         transform="matrix(0.9174090813912001,0.3979454452320748,-0.3979454452320748,0.9174090813912001,497.9196281478045,-9.218999636952674)"
         fill="none" stroke="#00a19d"></use>
    <use xlink:href="#bbburst-shape-12" width="29.350375002045286" opacity="0.03122266473395008"
         transform="matrix(0.8174629933643567,-0.5759811233710578,0.5759811233710578,0.8174629933643567,-93.8006637104744,437.5977582484892)"
         fill="none" stroke="#ffbd9b"></use>
    <use xlink:href="#bbburst-shape-11" width="36.69162703858274" opacity="0.23803826795248817"
         transform="matrix(0.9774429099665911,0.21119980529357127,-0.21119980529357127,0.9774429099665911,128.5321906378087,-52.29139613988002)"
         fill="none" stroke="#00a19d"></use>
    <use xlink:href="#bbburst-shape-11" width="28.197270630579457" opacity="0.4997342540575538"
         transform="matrix(0.9797418764754134,0.20026446384827162,-0.20026446384827162,0.9797418764754134,690.964745872238,20.2212872703152)"
         fill="none" stroke="#ffa6d5"></use>
    <use xlink:href="#bbburst-shape-11" width="35.32589881446107" opacity="0.08582656363853214"
         transform="matrix(0.9978140799861027,-0.06608374824029974,0.06608374824029974,0.9978140799861027,158.59489995417906,-359.3805387557572)"
         fill="none" stroke="#c1ffd7"></use>
    <use xlink:href="#bbburst-shape-10" width="24.34148694873909" opacity="0.5630674780947075"
         transform="matrix(0.9253714230507925,-0.37906164327316394,0.37906164327316394,0.9253714230507925,84.40160001326521,158.31378059260408)"
         fill="none" stroke="#ff5c58"></use>
    <use xlink:href="#bbburst-shape-7" width="20.842902391995445" opacity="0.6334631064764955"
         transform="matrix(0.9503263039484171,-0.3112553871401115,0.3112553871401115,0.9503263039484171,164.76054515333837,153.7173661777158)"
         fill="#00a19d"></use>
    <use xlink:href="#bbburst-shape-10" width="22.98663102922723" opacity="0.6508771876283721"
         transform="matrix(0.9995606480713412,-0.029639683318153923,0.029639683318153923,0.9995606480713412,487.9661217798273,111.38611270113933)"
         fill="none" stroke="#c1ffd7"></use>
    <use xlink:href="#bbburst-shape-10" width="29.868504224096984" opacity="0.08439044265506712"
         transform="matrix(0.935246904425901,0.35399608438762376,-0.35399608438762376,0.935246904425901,164.58536169396086,215.45226674783868)"
         fill="none" stroke="#ffa6d5"></use>
    <use xlink:href="#bbburst-shape-11" width="9.079036384896781" opacity="0.91124391772301"
         transform="matrix(0.7247431441041656,-0.6890191398459179,0.6890191398459179,0.7247431441041656,157.0283606715662,95.8614842867454)"
         fill="none" stroke="#ffbd9b"></use>
    <use xlink:href="#bbburst-shape-8" width="16.717807567830107" opacity="0.6685424265279662"
         transform="matrix(0.8426643633385825,0.5384391987580226,-0.5384391987580226,0.8426643633385825,686.9471904392238,-68.32267267798727)"
         fill="none" stroke="#00a19d"></use>
    <use xlink:href="#bbburst-shape-10" width="33.21751073911965" opacity="0.21120362774888302"
         transform="matrix(0.8023625225171561,0.5968369814781136,-0.5968369814781136,0.8023625225171561,324.5396114498564,-119.20135030995144)"
         fill="none" stroke="#ffbd9b"></use>
    <use xlink:href="#bbburst-shape-10" width="13.377754800857216" opacity="0.7469279296748437"
         transform="matrix(0.8649873223049966,-0.5017937148387093,0.5017937148387093,0.8649873223049966,271.37807195691653,140.45002734259657)"
         fill="none" stroke="#00a19d"></use>
    <use xlink:href="#bbburst-shape-12" width="23.6492193634248" opacity="0.3265405263919603"
         transform="matrix(0.9628426438003549,-0.27006303575192014,0.27006303575192014,0.9628426438003549,-21.40837509274688,43.46410030041142)"
         fill="none" stroke="#00a19d"></use>
    <use xlink:href="#bbburst-shape-12" width="35.48375801983899" opacity="0.36823370151747503"
         transform="matrix(0.7420569763377167,-0.6703368137500173,0.6703368137500173,0.7420569763377167,-146.9801127620442,216.31750302090904)"
         fill="none" stroke="#ff5c58"></use>
    <use xlink:href="#bbburst-shape-7" width="18.775521259502526" opacity="0.6687113975604642"
         transform="matrix(0.7136569632028422,0.7004953524985709,-0.7004953524985709,0.7136569632028422,551.9997855396463,194.35888277140697)"
         fill="#c1ffd7"></use>
    <use xlink:href="#bbburst-shape-12" width="38.917250202182466" opacity="0.13541257242690385"
         transform="matrix(0.9298189187232976,0.3680173615255642,-0.3680173615255642,0.9298189187232976,273.5399288134279,-272.4796009744677)"
         fill="none" stroke="#ffbd9b"></use>
    <use xlink:href="#bbburst-shape-8" width="11.504732609988025" opacity="0.829187591362919"
         transform="matrix(0.9968634210906921,0.07914113779420465,-0.07914113779420465,0.9968634210906921,407.3485746916447,75.38718713047632)"
         fill="none" stroke="#ffa6d5"></use>
    <use xlink:href="#bbburst-shape-11" width="14.61272970316287" opacity="0.8130297487344855"
         transform="matrix(0.8293386956070679,0.5587462106974572,-0.5587462106974572,0.8293386956070679,538.4491262140266,92.71269586991815)"
         fill="none" stroke="#ff5c58"></use>
    <use xlink:href="#bbburst-shape-12" width="17.208013025656655" opacity="0.6907182837943192"
         transform="matrix(0.9781783614254059,-0.20776692046403336,0.20776692046403336,0.9781783614254059,169.31512666411516,8.044692973758345)"
         fill="none" stroke="#00a19d"></use>
    <use xlink:href="#bbburst-shape-12" width="15.038448737676601" opacity="0.7098548153253526"
         transform="matrix(0.9892271216799622,0.14638887161521955,-0.14638887161521955,0.9892271216799622,581.6553056165513,0.3203043112440014)"
         fill="none" stroke="#ff5c58"></use>
    <use xlink:href="#bbburst-shape-12" width="35.98585771741923" opacity="0.24256499392097242"
         transform="matrix(0.9674097361267726,0.2532161180634603,-0.2532161180634603,0.9674097361267726,650.0405791275339,306.0272814125874)"
         fill="none" stroke="#00a19d"></use>
    <use xlink:href="#bbburst-shape-12" width="16.246051279643115" opacity="0.7816464081898399"
         transform="matrix(0.9973341323871059,-0.0729700512241751,0.0729700512241751,0.9973341323871059,459.74374413110354,17.089344183249352)"
         fill="none" stroke="#c1ffd7"></use>
    <use xlink:href="#bbburst-shape-8" width="38.02946177775897" opacity="-0.10874911890054828"
         transform="matrix(0.9488061888409717,0.315858854580761,-0.315858854580761,0.9488061888409717,154.71324639694515,366.4844217126053)"
         fill="none" stroke="#ffbd9b"></use>
    <use xlink:href="#bbburst-shape-8" width="28.014064941373604" opacity="0.37087859272412815"
         transform="matrix(0.9533390823288257,0.3019016298472608,-0.3019016298472608,0.9533390823288257,250.12285901824134,-103.68724131682956)"
         fill="none" stroke="#c1ffd7"></use>
    <use xlink:href="#bbburst-shape-10" width="34.923115802014124" opacity="0.16837075105487653"
         transform="matrix(0.9952959527522175,0.09688119753107796,-0.09688119753107796,0.9952959527522175,676.6882194220283,273.80394540316024)"
         fill="none" stroke="#00a19d"></use>
    <use xlink:href="#bbburst-shape-10" width="22.414851118061097" opacity="0.41857019437116794"
         transform="matrix(0.7436161343823173,-0.6686067937781514,0.6686067937781514,0.7436161343823173,205.58605882398882,-138.6242805418377)"
         fill="none" stroke="#ffa6d5"></use>
    <use xlink:href="#bbburst-shape-11" width="17.652459683928413" opacity="0.7092461075767924"
         transform="matrix(0.9506478866003081,0.3102718093903599,-0.3102718093903599,0.9506478866003081,505.3257581784443,-113.63417765898754)"
         fill="none" stroke="#00a19d"></use>
    <use xlink:href="#bbburst-shape-11" width="34.53745449831545" opacity="0.3557997229222992"
         transform="matrix(0.992061727259564,-0.12575185607684086,0.12575185607684086,0.992061727259564,527.8579169447329,219.09242526638099)"
         fill="none" stroke="#c1ffd7"></use>
    <use xlink:href="#bbburst-shape-11" width="16.906052849867795" opacity="0.8108776494417093"
         transform="matrix(0.999854829952056,0.01703875058638841,-0.01703875058638841,0.999854829952056,428.76944654957515,-79.79332758814729)"
         fill="none" stroke="#00a19d"></use>
    <use xlink:href="#bbburst-shape-8" width="28.212226685051395" opacity="0.5398869207615646"
         transform="matrix(0.9621969797322326,-0.2723544972901487,0.2723544972901487,0.9621969797322326,174.25203262421377,-160.5165981369516)"
         fill="none" stroke="#ffa6d5"></use>
    <use xlink:href="#bbburst-shape-10" width="31.765026899984846" opacity="0.3775241202618469"
         transform="matrix(0.8043931660527373,-0.5940973273863916,0.5940973273863916,0.8043931660527373,-28.9247652266981,303.54439781975674)"
         fill="none" stroke="#00a19d"></use>
    <use xlink:href="#bbburst-shape-7" width="31.71399342968435" opacity="0.4218270438327747"
         transform="matrix(0.9966946849998802,-0.08123856776796025,0.08123856776796025,0.9966946849998802,569.6892510662544,144.4661294686827)"
         fill="#00a19d"></use>
    <use xlink:href="#bbburst-shape-11" width="24.354712654014143" opacity="0.5943758580106742"
         transform="matrix(0.9164063453711999,-0.4002491850877413,0.4002491850877413,0.9164063453711999,51.132760537957864,-4.607898475407751)"
         fill="none" stroke="#ff5c58"></use>
    <use xlink:href="#bbburst-shape-8" width="25.050598637223036" opacity="0.5304388083378329"
         transform="matrix(0.9364091470725134,0.35091011566913805,-0.35091011566913805,0.9364091470725134,332.6712053147061,100.07815751816003)"
         fill="none" stroke="#c1ffd7"></use>
    <use xlink:href="#bbburst-shape-8" width="41.52602865192817" opacity="0.13597757182262826"
         transform="matrix(0.9565586500850449,-0.2915399611502282,0.2915399611502282,0.9565586500850449,535.4233179384885,-254.49736315112852)"
         fill="none" stroke="#ffa6d5"></use>
    <use xlink:href="#bbburst-shape-8" width="37.455182302959926" opacity="0.20070312902000476"
         transform="matrix(0.7925521256033392,-0.6098041720106783,0.6098041720106783,0.7925521256033392,-98.6046073950362,362.44576642129584)"
         fill="none" stroke="#ff5c58"></use>
    <use xlink:href="#bbburst-shape-12" width="19.10761812666211" opacity="0.685691715299746"
         transform="matrix(0.7523332753657375,0.6587826976913262,-0.6587826976913262,0.7523332753657375,592.5386667630642,-33.48023675151853)"
         fill="none" stroke="#c1ffd7"></use>
    <use xlink:href="#bbburst-shape-11" width="9.28074405414251" opacity="0.8580430774845151"
         transform="matrix(0.9507163462642676,-0.31006197597564455,0.31006197597564455,0.9507163462642676,278.2265167433889,84.56683764659562)"
         fill="none" stroke="#ffbd9b"></use>
    <use xlink:href="#bbburst-shape-12" width="20.350211484698598" opacity="0.6365512983942763"
         transform="matrix(0.7894656940639418,0.613794687086927,-0.613794687086927,0.7894656940639418,575.2316375341402,229.17057761755268)"
         fill="none" stroke="#00a19d"></use>
    <use xlink:href="#bbburst-shape-7" width="28.696309940873242" opacity="0.5675705419194728"
         transform="matrix(0.9936271131925881,0.11271716785194535,-0.11271716785194535,0.9936271131925881,562.6876567753131,-142.10469370340013)"
         fill="#00a19d"></use>
    <use xlink:href="#bbburst-shape-12" width="9.83887132298184" opacity="0.8964607036273353"
         transform="matrix(0.7724952977824174,-0.6350204838460364,0.6350204838460364,0.7724952977824174,184.37922295174218,113.8636208598324)"
         fill="none" stroke="#00a19d"></use>
    <use xlink:href="#bbburst-shape-12" width="30.830171068277195" opacity="0.03808689564103118"
         transform="matrix(0.9334891435339016,0.3586056593311697,-0.3586056593311697,0.9334891435339016,768.7179304188244,381.4942086157608)"
         fill="none" stroke="#c1ffd7"></use>
    <use xlink:href="#bbburst-shape-12" width="33.27698098914953" opacity="0.4016797871418505"
         transform="matrix(0.9705420544432509,0.24093177573137542,-0.24093177573137542,0.9705420544432509,747.0583321168044,-28.336076189263224)"
         fill="none" stroke="#c1ffd7"></use>
    <use xlink:href="#bbburst-shape-12" width="14.784650742900654" opacity="0.7685293996981498"
         transform="matrix(0.9211905564906206,-0.3891117559680003,0.3891117559680003,0.9211905564906206,133.54978490951615,40.435942211136535)"
         fill="none" stroke="#ff5c58"></use>
    <use xlink:href="#bbburst-shape-11" width="25.088414563349648" opacity="0.40676205860529635"
         transform="matrix(0.9667891530436972,-0.25557529919194205,0.25557529919194205,0.9667891530436972,187.38430367025754,264.42698909350213)"
         fill="none" stroke="#c1ffd7"></use>
    <use xlink:href="#bbburst-shape-8" width="35.38243330263498" opacity="0.31239115019413133"
         transform="matrix(0.983222670603217,-0.18240937479164207,0.18240937479164207,0.983222670603217,387.7174009759639,309.3497474175405)"
         fill="none" stroke="#c1ffd7"></use>
    <use xlink:href="#bbburst-shape-11" width="20.119401402870043" opacity="0.6393757119931738"
         transform="matrix(0.8316519753826195,-0.5552972103677335,0.5552972103677335,0.8316519753826195,51.838068769822655,-39.18807141650933)"
         fill="none" stroke="#ffa6d5"></use>
    <use xlink:href="#bbburst-shape-8" width="31.272246903574285" opacity="0.26515318032886814"
         transform="matrix(0.942887877851716,-0.3331102667290328,0.3331102667290328,0.942887877851716,-21.578148492154895,213.78965840963497)"
         fill="none" stroke="#ffbd9b"></use>
    <use xlink:href="#bbburst-shape-12" width="32.56628995911528" opacity="0.2615629922621754"
         transform="matrix(0.9504780325842443,-0.3107917463105867,0.3107917463105867,0.9504780325842443,541.4278802867407,201.80286506970396)"
         fill="none" stroke="#c1ffd7"></use>
    <use xlink:href="#bbburst-shape-11" width="18.476492950565195" opacity="0.6207633945342812"
         transform="matrix(0.7685897702651362,-0.6397419519179472,0.6397419519179472,0.7685897702651362,164.26017530801965,-70.14972147108298)"
         fill="none" stroke="#c1ffd7"></use>
    <use xlink:href="#bbburst-shape-8" width="13.591195872720997" opacity="0.8676775243700672"
         transform="matrix(0.9886582974757849,-0.15018245847062928,0.15018245847062928,0.9886582974757849,369.6293934482036,-41.55047106493032)"
         fill="none" stroke="#ffbd9b"></use>
    <use xlink:href="#bbburst-shape-11" width="38.225506338597235" opacity="0.31553703766337615"
         transform="matrix(0.8974489419604194,-0.44111834758273644,0.44111834758273644,0.8974489419604194,435.23047215563633,-156.91840099253548)"
         fill="none" stroke="#c1ffd7"></use>
    <use xlink:href="#bbburst-shape-11" width="25.30157935374994" opacity="0.5805041797649295"
         transform="matrix(0.7498923722984148,0.6615598460975814,-0.6615598460975814,0.7498923722984148,708.7244110587114,272.50046891259944)"
         fill="none" stroke="#00a19d"></use>
    <use xlink:href="#bbburst-shape-8" width="19.501265600437947" opacity="0.5430803337512822"
         transform="matrix(0.9718254328880511,-0.23570177765971997,0.23570177765971997,0.9718254328880511,458.1715362549465,140.28161006635605)"
         fill="none" stroke="#00a19d"></use>
    <use xlink:href="#bbburst-shape-12" width="12.148037368286378" opacity="0.8043166523309594"
         transform="matrix(0.8443057326435187,0.5358617637276345,-0.5358617637276345,0.8443057326435187,644.4127487427866,139.72708803534073)"
         fill="none" stroke="#ffbd9b"></use>
    <use xlink:href="#bbburst-shape-8" width="20.93605528834249" opacity="0.6887303840628449"
         transform="matrix(0.8038036693153661,-0.5948946639491345,0.5948946639491345,0.8038036693153661,26.09685724899765,26.77651730354097)"
         fill="none" stroke="#c1ffd7"></use>
    <use xlink:href="#bbburst-shape-12" width="25.255830573451743" opacity="0.43581834501994876"
         transform="matrix(0.9826565528045195,0.18543489215985906,-0.18543489215985906,0.9826565528045195,256.7013080352909,154.22145118129902)"
         fill="none" stroke="#ffbd9b"></use>
    <use xlink:href="#bbburst-shape-12" width="34.890469841619336" opacity="0.42994067405886605"
         transform="matrix(0.7579147359103792,0.6523536257965462,-0.6523536257965462,0.7579147359103792,797.4681295284502,-122.90564883085707)"
         fill="none" stroke="#00a19d"></use>
    <use xlink:href="#bbburst-shape-12" width="24.601636223089756" opacity="0.49994423469305926"
         transform="matrix(0.7366570855209927,-0.6762664699300984,0.6762664699300984,0.7366570855209927,128.94904557824987,-111.23975277774778)"
         fill="none" stroke="#c1ffd7"></use>
    <use xlink:href="#bbburst-shape-11" width="27.080604707300477" opacity="0.5146272786488786"
         transform="matrix(0.7827446384683572,0.6223430171127823,-0.6223430171127823,0.7827446384683572,515.406934915381,258.5925860969798)"
         fill="none" stroke="#ffbd9b"></use>
    <use xlink:href="#bbburst-shape-7" width="9.735338529084563" opacity="0.9588126332408184"
         transform="matrix(0.7262983698860104,-0.6873795733806206,0.6873795733806206,0.7262983698860104,140.00836280799115,112.20414029690409)"
         fill="#c1ffd7"></use>
    <use xlink:href="#bbburst-shape-12" width="35.57315541630957" opacity="0.37877979173857634"
         transform="matrix(0.8909129604069222,-0.4541740822404706,0.4541740822404706,0.8909129604069222,189.710449713427,330.9140649752599)"
         fill="none" stroke="#00a19d"></use>
    <use xlink:href="#bbburst-shape-12" width="27.70372773857588" opacity="0.3234217380549119"
         transform="matrix(0.9485906946943692,-0.31650544061556696,0.31650544061556696,0.9485906946943692,36.64592330465737,-181.7412790716403)"
         fill="none" stroke="#c1ffd7"></use>
    <use xlink:href="#bbburst-shape-8" width="32.46476575267565" opacity="0.20238475961459168"
         transform="matrix(0.8659631265040724,0.500107851903259,-0.500107851903259,0.8659631265040724,618.9158033077686,402.90993315141753)"
         fill="none" stroke="#ffa6d5"></use>
    <use xlink:href="#bbburst-shape-7" width="31.851186770241164" opacity="0.03566890577094761"
         transform="matrix(0.9202843747708646,-0.3912501368084091,0.3912501368084091,0.9202843747708646,575.5156969291606,299.0250364854532)"
         fill="#ffa6d5"></use>
    <use xlink:href="#bbburst-shape-11" width="22.974972538360294" opacity="0.136091477043086"
         transform="matrix(0.9379989997415089,0.3466379616890349,-0.3466379616890349,0.9379989997415089,656.078033815742,387.58970093478666)"
         fill="none" stroke="#00a19d"></use>
</svg>
